<svg width="80" height="160" viewBox="0 0 80 160" fill="none" xmlns="http://www.w3.org/2000/svg">
<path d="M28.7354 7.9043H59.5911V12.2278H63.9991V16.5512H68.407V72.7561H63.9991V77.0796H59.5911V81.403H33.1433V77.0796H24.3274V72.7561H19.9194V64.1092H11.1035V51.1388H15.5115V16.5512H19.9194V12.2278H28.7354V7.9043Z" fill="#F3CCA7"/>
<path fill-rule="evenodd" clip-rule="evenodd" d="M24.3274 85.7265H59.5911V90.0499H63.9991V98.6968H59.5911V124.638H63.9991V133.284H59.5911V154.902H50.7752V133.284H46.3672V141.931H41.9592V146.255H37.5513V154.902H28.7354V128.961H33.1433V124.638H19.9194V90.0499H24.3274V85.7265ZM28.7354 94.3734H33.1433V120.314H28.7354V94.3734Z" fill="#F3CCA7"/>
<path d="M63.9991 98.6968H68.407V111.667H72.815V120.314H63.9991V98.6968Z" fill="#F3CCA7"/>
<path d="M59.5923 7.9043H37.5525V12.2277H55.1844V16.5512H64.0003V51.1388H68.4082V16.5512H64.0003V12.2277H59.5923V7.9043Z" fill="#F3CCA7"/>
<path d="M19.9207 16.5512H15.5127V33.845H19.9207V16.5512Z" fill="#F3CCA7"/>
<path d="M15.5127 55.4623H19.9207V51.1388H24.3286V72.7561H19.9207V59.7857H15.5127V55.4623Z" fill="#F3CCA7"/>
<path d="M24.3286 72.7561H37.5525V77.0795H59.5923V81.403H33.1445V77.0795H24.3286V72.7561Z" fill="#F3CCA7"/>
<path d="M64.0003 98.6968H68.4082V111.667H72.8162V120.314H64.0003V98.6968Z" fill="#F3CCA7"/>
<path d="M64.0003 98.6968H59.5923V94.3734H55.1844V90.0499H33.1445V85.7264H59.5923V90.0499H64.0003V98.6968Z" fill="#F3CCA7"/>
<path d="M64.0003 124.638H59.5923V103.02H55.1844V124.638H59.5923V133.284H64.0003V124.638Z" fill="#F3CCA7"/>
<path d="M55.1844 137.608H59.5923V154.902H55.1844V137.608Z" fill="#F3CCA7"/>
<path d="M33.1445 128.961H28.7366V154.902H37.5525V146.255H33.1445V128.961Z" fill="#F3CCA7"/>
<path d="M41.9605 133.284H46.3684V137.608H41.9605V133.284Z" fill="#F3CCA7"/>
<path d="M28.7366 103.02H24.3286V115.991H19.9207V124.638H33.1445V120.314H28.7366V103.02Z" fill="#F3CCA7"/>
<path d="M33.1433 16.551H37.5513V20.8745H33.1433V16.551Z" fill="#D4B194"/>
<path d="M55.1831 16.551H41.9592V20.8745H55.1831V25.1979H59.5911V29.5214H63.9991V25.1979H59.5911V20.8745H55.1831V16.551Z" fill="#D4B194"/>
<path d="M15.5115 51.1387H11.1035V55.4621H15.5115V51.1387Z" fill="#D4B194"/>
<path d="M24.3274 85.7263H33.1433V90.0497H24.3274V85.7263Z" fill="#D4B194"/>
<path d="M24.3274 90.0497V94.3732H19.9194V90.0497H24.3274Z" fill="#D4B194"/>
<path d="M41.9592 100.858H37.5513V109.505H41.9592V100.858Z" fill="#D4B194"/>
<path d="M41.9592 100.858H46.3672V96.5349H41.9592V100.858Z" fill="#D4B194"/>
<path d="M50.7752 128.961H46.3672V133.284H50.7752V128.961Z" fill="#D4B194"/>
<path fill-rule="evenodd" clip-rule="evenodd" d="M59.5918 3.58057H28.7361V7.90402H19.9202V12.2275H15.5122V16.5509H11.1043V51.1385H6.69629V64.1089H11.1043V68.4324H15.5122V72.7558H19.9202V77.0793H24.3281V85.7262H19.9202V90.0496H15.5122V124.637H19.9202V128.961H24.3281V159.225H41.96V146.255H46.3679V159.225H68.4078V154.901H63.9998V133.284H68.4078V124.637H72.8157V120.314H77.2237V111.667H72.8157V98.6965H68.4078V90.0496H63.9998V85.7262H59.5918V81.4027H63.9998V77.0793H68.4078V72.7558H72.8157V16.5509H68.4078V12.2275H63.9998V7.90402H59.5918V3.58057ZM59.5918 7.90402V12.2275H63.9998V16.5509H68.4078V72.7558H63.9998V77.0793H59.5918V81.4027H33.1441V77.0793H24.3281V72.7558H19.9202V64.1089H11.1043V51.1385H15.5122V55.462H19.9202V51.1385H15.5122V16.5509H19.9202V12.2275H28.7361V7.90402H59.5918ZM63.9998 98.6965H59.5918V124.637H63.9998V133.284H59.5918V154.901H50.7759V133.284H46.3679V137.608H41.96V146.255H37.552V154.901H28.7361V128.961H37.552V120.314H33.1441V94.3731H28.7361V120.314H33.1441V124.637H19.9202V90.0496H24.3281V85.7262H59.5918V90.0496H63.9998V98.6965ZM63.9998 98.6965V120.314H72.8157V111.667H68.4078V98.6965H63.9998Z" fill="black"/>
<path fill-rule="evenodd" clip-rule="evenodd" d="M51.3225 84.042H42.0632V88.2902H51.3225V84.042ZM74.4708 109.532H69.8412L65.2115 109.532V113.78H69.8412L69.8412 118.028H74.4708V109.532ZM18.9148 113.78H14.2852V122.276H18.9148H23.5445V113.78H18.9148ZM28.1742 113.78H23.5445V118.028H28.1742V113.78Z" fill="#F3CCA7"/>
<path fill-rule="evenodd" clip-rule="evenodd" d="M42.0634 84.042H51.3227V88.2902H42.0634V84.042ZM65.2117 109.532H69.8414L74.4711 109.532V118.028H69.8414V113.78H65.2117V109.532ZM23.5447 113.78H28.1744V118.028H23.5447V122.276H18.915V113.78H23.5447Z" fill="#714A1C" fill-opacity="0.25" style="mix-blend-mode:multiply"/>
<rect x="42.0625" y="92.5383" width="9.25933" height="25.4895" fill="#8F00FF"/>
<path d="M46.6924 92.5383H51.3221V118.028H46.6924V92.5383Z" fill="black" fill-opacity="0.2" style="mix-blend-mode:multiply"/>
<path fill-rule="evenodd" clip-rule="evenodd" d="M32.804 79.7937H28.1744L28.1744 84.042H23.5447V88.2902H18.915V109.531L23.5447 109.531H28.1744L28.1744 92.5385H32.804V118.028H28.1744V126.524H32.804L37.4337 126.524V84.042H32.804L32.804 79.7937ZM51.3227 88.2902H55.9524V84.042H60.5821L60.582 88.2902H65.2117V96.7867H60.582V118.028H65.2117V126.524L60.5821 126.524H55.9524V118.028H51.3227V88.2902ZM65.2117 96.7867V105.283H69.8414V96.7867H65.2117Z" fill="black"/>
<path fill-rule="evenodd" clip-rule="evenodd" d="M28.1736 79.7937H32.8033V84.042H28.1736V79.7937ZM32.8033 88.2902V84.042H37.433V88.2902H32.8033ZM32.8033 88.2902V92.5385H28.1736V88.2902H32.8033ZM55.9516 84.042H60.5813V88.2902H55.9516V84.042ZM65.2109 96.7867V88.2902H60.5813V96.7867H65.2109ZM65.2109 96.7867V105.283H69.8406V96.7867H65.2109ZM60.5813 109.531H55.9516V126.524H60.5813H65.2109V118.028H60.5813L60.5813 109.531ZM37.433 118.028H28.1736V126.524H37.433V118.028ZM23.5439 101.035H28.1736V109.531H23.5439V101.035Z" fill="black" fill-opacity="0.2" style="mix-blend-mode:multiply"/>
<path fill-rule="evenodd" clip-rule="evenodd" d="M32.8036 75.5454H28.1739V79.7937H23.5443V84.0419H18.9146V88.2902H14.2849V113.78H9.65527V122.276H14.2849V126.524H23.5443H28.1739V130.773H37.4333V126.524H42.063V122.276H51.3223V126.524H55.952V88.2902V84.0419H60.5816V88.2902H65.2113V96.7867H60.5816V118.028H65.2113V126.524H55.952V130.773H65.2113V126.524H69.841V122.276H74.4706V118.028H79.1003V109.531H74.4706V96.7867H69.841V88.2902H65.2113V84.0419H60.5816V79.7937H55.952V84.0419H51.3223V88.2902H42.063V84.0419H37.4333V79.7937H32.8036V75.5454ZM32.8036 79.7937V84.0419H37.4333V126.524L28.1739 126.524V118.028H32.8036V92.5384H28.1739V109.531H18.9146V88.2902H23.5443V84.0419H28.1739V79.7937H32.8036ZM74.4706 109.531V118.028H69.841V113.78H65.2113V109.531H69.841H74.4706ZM69.841 96.7867H65.2113V105.283H69.841V96.7867ZM51.3223 118.028V92.5384H42.063V118.028H51.3223ZM28.1739 118.028V113.78H18.9146H14.2849V122.276H23.5443L23.5443 118.028H28.1739Z" fill="black"/>
<path fill-rule="evenodd" clip-rule="evenodd" d="M38.1839 125.733H29.1748V150.725H38.1839V146.56H42.6884V142.395H47.193V129.899H51.6975V150.725H60.7066V146.56H65.2111V125.733H60.7066H51.6975H47.193H42.6884H38.1839Z" fill="black"/>
<path fill-rule="evenodd" clip-rule="evenodd" d="M29.1745 121.568H24.6699V159.056H29.1745H38.1835H42.6881V146.56H47.1926V159.056H51.6972H60.7063H65.2108H69.7153V154.89H65.2108V146.56H69.7153V121.568H65.2108H29.1745ZM51.6972 154.89H60.7063V146.56H65.2108V134.064H60.7063V129.899H65.2108V125.733H29.1745V129.899H33.679V134.064H29.1745V154.89H38.1835V146.56H42.6881V142.395H47.1926V129.899H51.6972V154.89Z" fill="black"/>
<path fill-rule="evenodd" clip-rule="evenodd" d="M29.1748 125.733H33.6793V129.899H29.1748V125.733ZM29.1748 134.064H33.6793V138.229H29.1748V134.064ZM38.1839 146.56H33.6793V150.725H38.1839V146.56ZM42.6884 142.395V146.56L38.1839 146.56V142.395H42.6884ZM42.6884 142.395V129.899H47.193V142.395L42.6884 142.395ZM65.2111 125.733H60.7066V129.899H65.2111V125.733ZM60.7066 134.064H65.2111V138.229H60.7066V134.064ZM56.2021 134.064H51.6975V150.725H56.2021L60.7066 150.725V142.395H56.2021V134.064Z" fill="black" fill-opacity="0.2" style="mix-blend-mode:multiply"/>
<path fill-rule="evenodd" clip-rule="evenodd" d="M38.1839 150.725H29.1748V154.89H38.1839V150.725ZM60.7066 150.725H51.6975V154.89H60.7066V150.725Z" fill="white"/>
<path fill-rule="evenodd" clip-rule="evenodd" d="M33.6793 150.725H29.1748V154.89H33.6793V150.725ZM56.2021 150.725H51.6975V154.89H56.2021V150.725Z" fill="black" fill-opacity="0.2" style="mix-blend-mode:multiply"/>
<path fill-rule="evenodd" clip-rule="evenodd" d="M59.9562 8.30371H28.4244V12.8575H23.9199H19.4153L19.4153 17.4114H14.9108V53.842H10.4062V67.5035H14.9108H19.4153L19.4153 76.6111H23.9199V81.1649L28.4244 81.165H32.929V85.7188H59.9562L59.9562 81.165L64.4608 81.1649V76.6111H68.9653V17.4114H64.4608V12.8575H59.9562V8.30371Z" fill="#F3CCA7"/>
<path fill-rule="evenodd" clip-rule="evenodd" d="M37.4329 8.30371H59.9556V12.8575H64.4601V17.4114H55.451V12.8575H37.4329V8.30371ZM64.4601 17.4114H68.9647V53.842H64.4601V17.4114ZM14.9102 17.4114H19.4147V53.842H14.9102V17.4114ZM23.9192 76.6111H19.4147V62.9496H14.9102V58.3958H19.4147V53.842L23.9192 53.842V76.6111ZM37.4329 81.165V76.6111L23.9192 76.6111V81.165H32.9283V85.7188H59.9556V81.165H37.4329ZM19.4147 17.4114V12.8575H23.9192V17.4114H19.4147Z" fill="#714A1C" fill-opacity="0.25" style="mix-blend-mode:multiply"/>
<path fill-rule="evenodd" clip-rule="evenodd" d="M37.4335 17.4114H32.929V21.9652H37.4335V17.4114ZM41.9381 17.4114H55.4517V21.9652H41.9381V17.4114ZM55.4517 21.9652H59.9562V26.519H55.4517L55.4517 21.9652ZM10.4062 53.842H14.9108V58.3958H10.4062V53.842ZM64.4608 26.519H59.9562V31.0729H64.4608V26.519Z" fill="#FFFCF9" fill-opacity="0.7" style="mix-blend-mode:lighten"/>
<path fill-rule="evenodd" clip-rule="evenodd" d="M46.4423 49.2883H32.9287V53.8422H37.4332V62.9498H41.9378V53.8422H46.4423V49.2883ZM46.4423 72.0575H55.4514V76.6113H46.4423V72.0575ZM46.4423 72.0575H41.9378V67.5036H46.4423V72.0575ZM55.4514 49.2883H59.956H64.4605V53.8422H59.956V62.9498H55.4514V49.2883Z" fill="black"/>
<path fill-rule="evenodd" clip-rule="evenodd" d="M50.9466 49.2883H46.442V53.8422H41.9375V58.396H46.442V53.8422H50.9466V49.2883Z" fill="#714A1C" fill-opacity="0.25" style="mix-blend-mode:multiply"/>
<path fill-rule="evenodd" clip-rule="evenodd" d="M28.4241 3.75H59.9559V8.30383H28.4241V3.75ZM19.415 12.8577V8.30383H28.4241V12.8577H19.415ZM14.9105 17.4115V12.8577H19.415V17.4115H14.9105ZM14.9105 53.8421V17.4115H10.4059V53.8421H5.90137V67.5036H10.4059V72.0574H14.9105V76.6112H19.415V81.1651H23.9195V85.7189H32.9286V90.2727H59.9559V85.7189H64.4604V81.1651H68.965V76.6112H73.4695V17.4115H68.965V12.8577H64.4604V8.30383H59.9559V12.8577H64.4604V17.4115H68.965V76.6112H64.4604V81.1651H59.9559V85.7189H32.9286V81.1651H23.9195V76.6112H19.415L19.415 72.0574V67.5036H10.4059V53.8421L14.9105 53.8421ZM14.9105 53.8421V58.3959H19.415V53.8421L14.9105 53.8421Z" fill="black"/>
<path fill-rule="evenodd" clip-rule="evenodd" d="M32.6713 3.99536H28.6211V7.92263H24.571V11.8499H20.5209V15.7772H16.4707H12.4206V19.7045H8.37045H4.32031V23.6317H8.37045V43.2681H12.4206V47.1954H16.4707V51.1226H20.5209V58.9772H24.571V43.2681H28.6211V35.4135H32.6713V31.4863H48.8718H61.0222V35.4135H65.0724V39.3408H69.1225V27.559H73.1726V23.6317H69.1225V19.7045H73.1726V15.7772H69.1225H65.0724V11.8499H61.0222V7.92263H48.8718V3.99536H32.6713Z" fill="black"/>
<path fill-rule="evenodd" clip-rule="evenodd" d="M20.5215 11.8499H24.5716V15.7771H28.6218L28.6218 19.7044H32.6719V23.6317H40.7722V27.5589H61.0229V31.4862H40.7722H32.6719V35.4135H28.6218L28.6218 43.268H24.5716V58.9771H20.5215V51.1226H16.4714V47.1953H12.4212V43.268H8.37109V31.4862H12.4212V35.4135H16.4714L20.5215 35.4135V31.4862H24.5716V27.5589H28.6218V23.6317H24.5716V19.7044H20.5215V11.8499ZM69.1231 27.5589H65.073V31.4862H61.0229V35.4135H65.073V39.3408H69.1231V27.5589ZM69.1231 27.5589H73.1733V23.6317H69.1231V27.5589ZM56.9727 19.7044H44.8223V23.6317H56.9727V19.7044ZM56.9727 19.7044H65.073V15.7771H56.9727V19.7044Z" fill="black" fill-opacity="0.2" style="mix-blend-mode:multiply"/>
<path fill-rule="evenodd" clip-rule="evenodd" d="M32.6716 11.8499H44.822V15.7771H32.6716V11.8499ZM20.5212 19.7044H16.471V23.6317H12.4209V27.5589H16.471V23.6317H20.5212V19.7044ZM52.9223 11.8499H48.8721V15.7771H52.9223V11.8499Z" fill="white" fill-opacity="0.3" style="mix-blend-mode:lighten"/>
<path fill-rule="evenodd" clip-rule="evenodd" d="M28.6215 0.0681152H48.8721V3.99539H28.6215V0.0681152ZM24.5713 7.92266V3.99539H28.6215V7.92266H24.5713ZM20.5212 11.8499V7.92266H24.5713V11.8499H20.5212ZM12.4209 15.7772V11.8499H20.5212V15.7772H12.4209ZM4.32064 19.7045V15.7772H12.4209V19.7045H4.32064ZM4.32064 23.6318H0.270508V19.7045H4.32064V23.6318ZM8.37078 43.2681H4.32064V23.6318H8.37078V43.2681ZM8.37078 43.2681H12.4209V51.1227H8.37078V43.2681ZM61.0226 7.92266H48.8721V3.99539H61.0226V7.92266ZM65.0727 11.8499H61.0226V7.92266H65.0727V11.8499ZM73.173 15.7772H65.0727V11.8499H73.173V15.7772ZM73.173 19.7045V15.7772H77.2231V19.7045H73.173ZM73.173 23.6318H69.1228V19.7045H73.173V23.6318ZM73.173 27.559H77.2231V23.6318H73.173V27.559ZM73.173 27.559V43.2681H69.1228V27.559H73.173Z" fill="black"/>
</svg>
