<svg width="158" height="324" viewBox="0 0 158 324" fill="none" xmlns="http://www.w3.org/2000/svg">
<path d="M45.625 14.3462H108.596V23.1696H117.592V31.9929H126.588V146.697H117.592V155.52H108.596V164.344H54.6208V155.52H36.6291V146.697H27.6333V129.05H9.6416V102.58H18.6374V31.9929H27.6333V23.1696H45.625V14.3462Z" fill="#9C6F4B"/>
<path fill-rule="evenodd" clip-rule="evenodd" d="M36.6291 173.167H108.596V181.99H117.592V199.637H108.596V252.577H117.592V270.224H108.596V314.341H90.6042V270.224H81.6083V287.871H72.6125V296.694H63.6167V314.341H45.625V261.401H54.6208V252.577H27.6333V181.99H36.6291V173.167ZM45.625 190.814H54.6208V243.754H45.625V190.814Z" fill="#9C6F4B"/>
<path d="M117.592 199.637H126.588V226.107H135.583V243.754H117.592V199.637Z" fill="#9C6F4B"/>
<path d="M108.595 14.3462H63.6159V23.1696H99.5993V31.9929H117.591V102.58H126.587V31.9929H117.591V23.1696H108.595V14.3462Z" fill="#714A1C" fill-opacity="0.25" style="mix-blend-mode:multiply"/>
<path d="M27.6326 31.9929H18.6367V67.2864H27.6326V31.9929Z" fill="#714A1C" fill-opacity="0.25" style="mix-blend-mode:multiply"/>
<path d="M18.6367 111.403H27.6326V102.58H36.6284V146.697H27.6326V120.227H18.6367V111.403Z" fill="#714A1C" fill-opacity="0.25" style="mix-blend-mode:multiply"/>
<path d="M36.6284 146.697H63.6159V155.52H108.595V164.344H54.6201V155.52H36.6284V146.697Z" fill="#714A1C" fill-opacity="0.25" style="mix-blend-mode:multiply"/>
<path d="M117.591 199.637H126.587V226.107H135.583V243.754H117.591V199.637Z" fill="#714A1C" fill-opacity="0.25" style="mix-blend-mode:multiply"/>
<path d="M117.591 199.637H108.595V190.814H99.5993V181.99H54.6201V173.167H108.595V181.99H117.591V199.637Z" fill="#714A1C" fill-opacity="0.25" style="mix-blend-mode:multiply"/>
<path d="M117.591 252.577H108.595V208.46H99.5993V252.577H108.595V270.224H117.591V252.577Z" fill="#714A1C" fill-opacity="0.25" style="mix-blend-mode:multiply"/>
<path d="M99.5993 279.047H108.595V314.341H99.5993V279.047Z" fill="#714A1C" fill-opacity="0.25" style="mix-blend-mode:multiply"/>
<path d="M54.6201 261.401H45.6242V314.341H63.6159V296.694H54.6201V261.401Z" fill="#714A1C" fill-opacity="0.25" style="mix-blend-mode:multiply"/>
<path d="M72.6118 270.224H81.6076V279.047H72.6118V270.224Z" fill="#714A1C" fill-opacity="0.25" style="mix-blend-mode:multiply"/>
<path d="M45.6242 208.46H36.6284V234.931H27.6326V252.577H54.6201V243.754H45.6242V208.46Z" fill="#714A1C" fill-opacity="0.25" style="mix-blend-mode:multiply"/>
<path d="M54.6208 31.9929H63.6167V40.8163H54.6208V31.9929Z" fill="#FFFCF9" fill-opacity="0.7" style="mix-blend-mode:lighten"/>
<path d="M99.6 31.9929H72.6125V40.8163H99.6V49.6397H108.596V58.463H117.592V49.6397H108.596V40.8163H99.6V31.9929Z" fill="#FFFCF9" fill-opacity="0.7" style="mix-blend-mode:lighten"/>
<path d="M18.6374 102.58H9.6416V111.403H18.6374V102.58Z" fill="#FFFCF9" fill-opacity="0.7" style="mix-blend-mode:lighten"/>
<path d="M36.6291 173.167H54.6208V181.99H36.6291V173.167Z" fill="#FFFCF9" fill-opacity="0.7" style="mix-blend-mode:lighten"/>
<path d="M36.6291 181.99V190.814H27.6333V181.99H36.6291Z" fill="#FFFCF9" fill-opacity="0.7" style="mix-blend-mode:lighten"/>
<path d="M72.6125 204.049H63.6167V221.695H72.6125V204.049Z" fill="#FFFCF9" fill-opacity="0.7" style="mix-blend-mode:lighten"/>
<path d="M72.6125 204.049H81.6083V195.225H72.6125V204.049Z" fill="#FFFCF9" fill-opacity="0.7" style="mix-blend-mode:lighten"/>
<path d="M90.6042 261.401H81.6083V270.224H90.6042V261.401Z" fill="#FFFCF9" fill-opacity="0.7" style="mix-blend-mode:lighten"/>
<path fill-rule="evenodd" clip-rule="evenodd" d="M108.596 5.52271H45.6247V14.3461H27.633V23.1695H18.6372V31.9928H9.64135V102.58H0.645508V129.05H9.64135V137.873H18.6372V146.697H27.633V155.52H36.6289V173.167H27.633V181.99H18.6372V252.577H27.633V261.401H36.6289V323.164H72.6122V296.694H81.6081V323.164H126.587V314.341H117.591V270.224H126.587V252.577H135.583V243.754H144.579V226.107H135.583V199.637H126.587V181.99H117.591V173.167H108.596V164.343H117.591V155.52H126.587V146.697H135.583V31.9928H126.587V23.1695H117.591V14.3461H108.596V5.52271ZM108.596 14.3461V23.1695H117.591V31.9928H126.587V146.697H117.591V155.52H108.596V164.343H54.6206V155.52H36.6289V146.697H27.633V129.05H9.64135V102.58H18.6372V111.403H27.633V102.58H18.6372V31.9928H27.633V23.1695H45.6247V14.3461H108.596ZM117.591 199.637H108.596V252.577H117.591V270.224H108.596V314.341H90.6039V270.224H81.6081V279.047H72.6122V296.694H63.6164V314.341H45.6247V261.401H63.6164V243.754H54.6206V190.814H45.6247V243.754H54.6206V252.577H27.633V181.99H36.6289V173.167H108.596V181.99H117.591V199.637ZM117.591 199.637V243.754H135.583V226.107H126.587V199.637H117.591Z" fill="black"/>
<path fill-rule="evenodd" clip-rule="evenodd" d="M110.9 9.10767H46.9607L46.9607 18.2153H37.8265H28.6922V27.323H19.558V100.184H10.4238V127.507H19.558L28.6922 127.507V145.723H37.8265V154.83L46.9607 154.83H56.0949V163.938H110.9V154.83L120.034 154.83V145.722H129.169V27.323H120.034V18.2153H110.9L110.9 9.10767Z" fill="#FAE6CE"/>
<path fill-rule="evenodd" clip-rule="evenodd" d="M65.2296 9.10767H110.901V18.2153H120.035V27.323H101.766V18.2153H65.2296V9.10767ZM120.035 27.323H129.169V100.184H120.035V27.323ZM19.5586 27.323H28.6928V100.184H19.5586V27.323ZM37.827 145.723H28.6928V118.4H19.5586V109.292H28.6928V100.184L37.827 100.184V145.723ZM65.2296 154.83V145.723L37.827 145.723V154.83H56.0954V163.938H110.901V154.83H65.2296ZM28.6928 27.323V18.2153H37.827V27.323H28.6928Z" fill="#714A1C" fill-opacity="0.25" style="mix-blend-mode:multiply"/>
<path fill-rule="evenodd" clip-rule="evenodd" d="M65.2291 27.323H56.0949V36.4307H65.2291V27.323ZM74.3633 27.323H101.766V36.4307H74.3633V27.323ZM110.9 45.5383V36.4307H101.766V45.5383H110.9ZM110.9 45.5383V54.646H120.034V45.5383H110.9ZM10.4238 100.184H19.558V109.292H10.4238V100.184Z" fill="#FFFCF9" fill-opacity="0.7" style="mix-blend-mode:lighten"/>
<path fill-rule="evenodd" clip-rule="evenodd" d="M65.2299 91.0767H74.3641V100.184H65.2299V91.0767ZM65.2299 100.184V109.292H56.0957V100.184H65.2299ZM74.3641 100.184H83.4983V109.292H74.3641V100.184ZM83.4983 127.507V136.615H74.3641V127.507H83.4983ZM101.767 136.615V145.723H83.4983V136.615H101.767ZM101.767 136.615H110.901V127.507H101.767V136.615ZM101.767 100.184H92.6325V109.292H101.767V100.184ZM110.901 100.184H101.767V91.0767H110.901V100.184ZM110.901 100.184V109.292H120.035V100.184H110.901Z" fill="black"/>
<path fill-rule="evenodd" clip-rule="evenodd" d="M83.4975 91.0767H74.3633V100.184H83.4975V109.292H92.6317V100.184H83.4975V91.0767Z" fill="#714A1C" fill-opacity="0.25" style="mix-blend-mode:multiply"/>
<path fill-rule="evenodd" clip-rule="evenodd" d="M46.9611 0H110.901V9.10766H46.9611V0ZM28.6927 18.2153V9.10766H46.9611V18.2153H28.6927ZM19.5585 27.323V18.2153H28.6927V27.323H19.5585ZM19.5585 100.184V27.323H10.4242V100.184H1.29004V127.507H10.4242V136.615H19.5585V145.722H28.6927V154.83H37.8269V163.938H56.0953V173.045H110.901V163.938H120.035V154.83H129.169V145.722H138.303V27.323H129.169V18.2153H120.035V9.10766H110.901V18.2153H120.035V27.323H129.169V145.722L120.035 145.722V154.83H110.901V163.938H56.0953V154.83H37.8269V145.722H28.6927V136.615V127.507H10.4242V100.184H19.5585ZM19.5585 100.184V109.292H28.6927V100.184H19.5585Z" fill="black"/>
<path fill-rule="evenodd" clip-rule="evenodd" d="M50.5668 8.0144H42.354L42.354 16.0288H25.9285V24.0432H17.7157V88.1583H25.9285V96.1727H42.354L42.354 80.1439H50.5668L50.5668 72.1295H66.9924V64.1151H83.4179V56.1008H91.6307V48.0864H99.8435V56.1008H108.056V64.1151H116.269V72.1295H124.482V16.0288H116.269V8.0144H108.056H99.8435H91.6307H83.4179H66.9924H50.5668ZM17.7157 128.23H25.9285V136.245H34.1413V144.259H42.354V160.288H34.1413V168.302H25.9285H17.7157H9.50293V160.288H17.7157V128.23ZM124.482 32.0576H132.695L132.695 56.1008H140.907V136.245H132.695V152.273H140.907V160.288H149.12V168.302H140.907H132.695L132.695 176.317H124.482V120.216H132.695V88.1583H124.482V32.0576ZM124.482 144.259H116.269V168.302H124.482V144.259Z" fill="black"/>
<path fill-rule="evenodd" clip-rule="evenodd" d="M108.056 16.0288H99.8436V32.0576H91.6308V48.0864H99.8436L99.8436 32.0576H108.056V16.0288ZM17.7158 24.0432H25.9286V80.1439H34.1414V72.1295L42.3541 72.1296H50.5669V80.144H42.3541L42.3542 96.1727H34.1414H25.9286V88.1583H17.7158V24.0432ZM83.418 56.1008H66.9925V64.1152H50.5669V72.1295H66.9925V64.1152H83.418V56.1008ZM83.418 56.1008L83.418 48.0864H91.6308V56.1008L83.418 56.1008ZM132.695 120.216H124.482V144.259H116.269V168.302H124.482V176.317H132.695V168.302H140.907L149.12 168.302V160.288H140.907V152.273H132.695V136.245H140.907V56.1008H132.695V120.216Z" fill="black" fill-opacity="0.2" style="mix-blend-mode:multiply"/>
<path fill-rule="evenodd" clip-rule="evenodd" d="M83.4181 16.0288H91.6309V32.0576H83.4181V16.0288ZM75.2054 40.072V32.0576H83.4181L83.4182 40.072H75.2054ZM58.7798 40.072H75.2054L75.2054 48.0864H58.7798V40.072ZM42.3543 40.072H58.7798V32.0576H66.9926V16.0288H58.7798L58.7798 32.0576H42.3543V40.072ZM42.3543 40.072V48.0864H34.1415V40.072L42.3543 40.072ZM50.567 48.0864H58.7798V56.1008H50.567V48.0864ZM34.1415 48.0864H25.9287V64.1152H34.1415V48.0864Z" fill="white" fill-opacity="0.3" style="mix-blend-mode:lighten"/>
<path fill-rule="evenodd" clip-rule="evenodd" d="M116.269 0H42.3539V8.01439H25.9284V16.0288H17.7156V24.0432H9.50282V88.1583H17.7156V24.0432H25.9284V16.0288H42.3539V8.01439H116.269L116.269 16.0288H124.482V32.0576H132.694V56.1007H140.907V136.245H132.694V152.273H140.907V160.288H149.12V168.302H132.694V176.317H124.482V168.302H116.269V152.273H108.056V168.302H116.269V176.317H124.482V184.331H132.694V176.317H149.12V168.302H157.333V160.288H149.12V152.273H140.907V136.245H149.12V56.1007H140.907V32.0576H132.694V16.0288H124.482V8.01439H116.269V0ZM9.50282 128.23H17.7156V160.288H9.50282V128.23ZM9.50282 168.302H1.29004V160.288H9.50282V168.302ZM34.1411 168.302V176.317H9.50282V168.302H34.1411ZM42.3539 160.288V168.302H34.1411L34.1411 160.288H42.3539ZM42.3539 160.288V152.273H50.5667V160.288H42.3539ZM116.269 120.216H124.482V144.259H116.269V120.216Z" fill="black"/>
<path fill-rule="evenodd" clip-rule="evenodd" d="M100.764 149.598H61.725V159.287H71.4848V168.976H91.0045V159.287H100.764V149.598ZM22.6856 168.976H32.4455H42.2053V236.799H32.4455L32.4455 246.488H22.6856L12.9258 246.488V227.11H22.6856V168.976ZM130.044 217.421H139.804V236.799H130.044H120.284V188.354H130.044V217.421Z" fill="#FAE6CE"/>
<path fill-rule="evenodd" clip-rule="evenodd" d="M100.764 149.598H61.725V159.287H100.764V149.598ZM120.284 188.354H130.044V217.421H139.804V236.799H130.044H120.284V188.354ZM32.4455 198.043H42.2053V246.488H32.4455H12.9258V227.11H32.4455L32.4455 198.043Z" fill="#714A1C" fill-opacity="0.25" style="mix-blend-mode:multiply"/>
<path d="M22.6855 168.976H32.4454V178.665H22.6855V168.976Z" fill="#FFFCF9" fill-opacity="0.7" style="mix-blend-mode:lighten"/>
<path fill-rule="evenodd" clip-rule="evenodd" d="M42.2052 149.598H51.9651V159.287H61.7249V168.976H71.4848V294.933L61.7249 294.933L51.9651 294.933H42.2052H32.4454L22.6855 294.933V285.244H32.4454V265.866H42.2052V236.799H51.9651V168.976H42.2052V149.598ZM91.0044 178.665H71.4848V294.933H91.0044H100.764L110.524 294.933L120.284 294.933H130.044V275.555H120.284V246.488H110.524V159.287H100.764V168.976H91.0044L91.0044 178.665Z" fill="#E62E2E"/>
<path fill-rule="evenodd" clip-rule="evenodd" d="M42.2052 149.598H51.965V159.287H42.2052V149.598ZM51.965 159.287H61.7248V168.976H51.965V159.287ZM110.524 159.287H100.764V168.976H91.0044V178.665H100.764V188.354H110.524V159.287ZM91.0044 256.177H100.764V275.555H91.0044V256.177ZM91.0044 275.555L91.0044 294.933H81.2445V275.555H91.0044ZM100.764 236.799H91.0044V246.488H100.764V236.799ZM91.0044 207.732H100.764V227.11H91.0044V207.732ZM71.4847 265.866H61.7248V275.555H51.965V285.244H61.7248V275.555H71.4847V265.866ZM71.4847 265.866H81.2445V246.488H71.4847L71.4847 265.866ZM61.7248 207.732H51.965V236.799H42.2052V256.177H51.965V236.799H61.7248V207.732ZM42.2052 265.866H32.4453V275.555H42.2052V265.866ZM120.284 275.555H130.044V294.933H120.284V275.555ZM120.284 246.488H110.524V265.866H120.284V246.488Z" fill="black" fill-opacity="0.2" style="mix-blend-mode:multiply"/>
<path fill-rule="evenodd" clip-rule="evenodd" d="M51.9649 159.287H42.2051V168.976H51.9649V159.287ZM91.0043 217.421H81.2444V236.799H91.0043V217.421ZM61.7248 256.177H71.4846V265.866H61.7248V256.177ZM51.9649 265.866H61.7248V275.555H51.9649V265.866ZM51.9649 275.555V294.933H42.2051V275.555L51.9649 275.555ZM71.4846 275.555H81.2444V294.933H71.4846V275.555ZM81.2444 275.555V265.866H91.0043V275.555L81.2444 275.555Z" fill="white" fill-opacity="0.3" style="mix-blend-mode:lighten"/>
<path fill-rule="evenodd" clip-rule="evenodd" d="M61.7248 304.622H42.2051V314.311H61.7248V304.622ZM110.524 304.622H91.0043V314.311H110.524V304.622Z" fill="black"/>
<path fill-rule="evenodd" clip-rule="evenodd" d="M51.9649 304.622H42.2051V314.311H51.9649V304.622ZM100.764 304.622H91.0043V314.311H100.764V304.622Z" fill="black" fill-opacity="0.2" style="mix-blend-mode:multiply"/>
<path fill-rule="evenodd" clip-rule="evenodd" d="M42.2054 139.909H51.9652V149.598H42.2054V139.909ZM42.2054 168.976V149.598H32.4455V159.287H22.6857V168.976H12.9259V227.11H3.16602V246.488H12.9259V256.177H32.4455L32.4455 265.866H22.6857V285.244H12.9259V294.933V304.622H32.4455V324H42.2054H61.7251H71.4849V304.622H81.2447V324H91.0046H130.044V314.311H120.284V304.622H139.804L139.804 294.933V275.555H130.044V246.488H139.804V236.799H149.564V217.421H139.804V188.354H130.044V168.976H120.284V159.287H110.524V149.598H100.764V159.287H91.0046V168.976H71.4849V159.287H61.7251V149.598H51.9652V159.287H61.7251V168.976H71.4849V178.665H91.0046V168.976H100.764V159.287H110.524V246.488H120.284V275.555H130.044V294.933H22.6857V285.244H32.4455V265.866H42.2054V236.799H51.9652V168.976H42.2054ZM42.2054 168.976H32.4455H22.6857V227.11H12.9259V246.488H32.4455L32.4455 236.799L42.2054 236.799V168.976ZM130.044 188.354H120.284V236.799H130.044H139.804V217.421H130.044V188.354ZM91.0046 314.311H110.524V304.622H91.0046V314.311ZM61.7251 314.311V304.622H42.2054V314.311H61.7251Z" fill="black"/>
</svg>
