<svg width="74" height="157" viewBox="0 0 74 157" fill="none" xmlns="http://www.w3.org/2000/svg">
<path d="M22.1893 4.58057H53.2549V8.93343H57.6929V13.2863H62.1308V69.8736H57.6929V74.2264H53.2549V78.5793H26.6272V74.2264H17.7513V69.8736H13.3134V61.1678H4.4375V48.1092H8.87545V13.2863H13.3134V8.93343H22.1893V4.58057Z" fill="#FAE6CE"/>
<path fill-rule="evenodd" clip-rule="evenodd" d="M17.7513 82.9322H53.2549V87.285H57.6929V95.9907H53.2549V122.108H57.6929V130.814H53.2549V152.578H44.379V130.814H39.9411V139.519H35.5031V143.872H31.0652V152.578H22.1893V126.461H26.6272V122.108H13.3134V87.285H17.7513V82.9322ZM22.1893 91.6379H26.6272V117.755H22.1893V91.6379Z" fill="#FAE6CE"/>
<path d="M57.6929 95.9907H62.1308V109.049H66.5688V117.755H57.6929V95.9907Z" fill="#FAE6CE"/>
<path d="M53.2564 4.58057H31.0667V8.93343H48.8185V13.2863H57.6944V48.1092H62.1323V13.2863H57.6944V8.93343H53.2564V4.58057Z" fill="#E3C4A6"/>
<path d="M13.3149 13.2863H8.87695V30.6978H13.3149V13.2863Z" fill="#E3C4A6"/>
<path d="M8.87695 52.4621H13.3149V48.1092H17.7529V69.8736H13.3149V56.815H8.87695V52.4621Z" fill="#E3C4A6"/>
<path d="M17.7529 69.8736H31.0667V74.2264H53.2564V78.5793H26.6287V74.2264H17.7529V69.8736Z" fill="#E3C4A6"/>
<path d="M57.6944 95.9907H62.1323V109.049H66.5703V117.755H57.6944V95.9907Z" fill="#E3C4A6"/>
<path d="M57.6944 95.9907H53.2564V91.6379H48.8185V87.285H26.6287V82.9322H53.2564V87.285H57.6944V95.9907Z" fill="#E3C4A6"/>
<path d="M57.6944 122.108H53.2564V100.344H48.8185V122.108H53.2564V130.814H57.6944V122.108Z" fill="#E3C4A6"/>
<path d="M48.8185 135.167H53.2564V152.578H48.8185V135.167Z" fill="#E3C4A6"/>
<path d="M26.6287 126.461H22.1908V152.578H31.0667V143.872H26.6287V126.461Z" fill="#E3C4A6"/>
<path d="M35.5046 130.814H39.9426V135.167H35.5046V130.814Z" fill="#E3C4A6"/>
<path d="M22.1908 100.344H17.7529V113.402H13.3149V122.108H26.6287V117.755H22.1908V100.344Z" fill="#E3C4A6"/>
<path d="M26.6272 13.2861H31.0652V17.639H26.6272V13.2861Z" fill="#FFF8EF"/>
<path d="M48.817 13.2861H35.5031V17.639H48.817V21.9919H53.2549V26.3447H57.6929V21.9919H53.2549V17.639H48.817V13.2861Z" fill="#FFF8EF"/>
<path d="M8.87545 48.1091H4.4375V52.4619H8.87545V48.1091Z" fill="#FFF8EF"/>
<path d="M17.7513 82.932H26.6272V87.2848H17.7513V82.932Z" fill="#FFF8EF"/>
<path d="M17.7513 87.2848V91.6377H13.3134V87.2848H17.7513Z" fill="#FFF8EF"/>
<path d="M35.5031 98.167H31.0652V106.873H35.5031V98.167Z" fill="#FFF8EF"/>
<path d="M35.5031 98.167H39.9411V93.8141H35.5031V98.167Z" fill="#FFF8EF"/>
<path d="M44.379 126.461H39.9411V130.813H44.379V126.461Z" fill="#FFF8EF"/>
<path fill-rule="evenodd" clip-rule="evenodd" d="M53.2554 0.227539H22.1897V4.5804H13.3138V8.93327H8.8759V13.2861H4.43795V48.1091H0V61.1677H4.43795V65.5205H8.8759V69.8734H13.3138V74.2262H17.7518V82.932H13.3138V87.2848H8.8759V122.108H13.3138V126.461H17.7518V156.931H35.5036V143.872H39.9415V156.931H62.1313V152.578H57.6933V130.813H62.1313V122.108H66.5692V117.755H71.0072V109.049H66.5692V95.9906H62.1313V87.2848H57.6933V82.932H53.2554V78.5791H57.6933V74.2262H62.1313V69.8734H66.5692V13.2861H62.1313V8.93327H57.6933V4.5804H53.2554V0.227539ZM53.2554 4.5804V8.93327H57.6933V13.2861H62.1313V69.8734H57.6933V74.2262H53.2554V78.5791H26.6277V74.2262H17.7518V69.8734H13.3138V61.1677H4.43795V48.1091H8.8759V52.4619H13.3138V48.1091H8.8759V13.2861H13.3138V8.93327H22.1897V4.5804H53.2554ZM57.6933 95.9906H53.2554V122.108H57.6933V130.813H53.2554V152.578H44.3795V130.813H39.9415V135.166H35.5036V143.872H31.0656V152.578H22.1897V126.461H31.0656V117.755H26.6277V91.6377H22.1897V117.755H26.6277V122.108H13.3138V87.2848H17.7518V82.932H53.2554V87.2848H57.6933V95.9906ZM57.6933 95.9906V117.755H66.5692V109.049H62.1313V95.9906H57.6933Z" fill="black"/>
<path fill-rule="evenodd" clip-rule="evenodd" d="M52.5535 4.63281H21.8975L21.8975 8.99286H17.5181H13.1387V13.3529H8.7593V48.2333H4.37988V61.3134H8.7593H13.1387V70.0335H17.5181V74.3936L21.8975 74.3936H26.277V78.7536H52.5535L52.5535 74.3936L56.9329 74.3936V70.0335H61.3123V13.3529H56.9329V8.99286H52.5535V4.63281Z" fill="#FAE6CE"/>
<path fill-rule="evenodd" clip-rule="evenodd" d="M30.6559 4.63281H52.553V8.99286H56.9324L56.9324 13.3529H48.1735V8.99286H30.6559V4.63281ZM56.9324 13.3529H61.3118V48.2333H56.9324V13.3529ZM8.75879 13.3529H13.1382V48.2333H8.75879V13.3529ZM17.5176 70.0335H13.1382V56.9534H8.75879V52.5933H13.1382V48.2333H17.5176V70.0335ZM30.6559 74.3936V70.0335H17.5176V74.3936H26.2765V78.7536H52.553V74.3936H30.6559ZM13.1382 13.3529V8.99286H17.5176V13.3529H13.1382Z" fill="#714A1C" fill-opacity="0.25" style="mix-blend-mode:multiply"/>
<path fill-rule="evenodd" clip-rule="evenodd" d="M30.6564 13.3528H26.277V17.7128H30.6564V13.3528ZM35.0358 13.3528H48.174V17.7128H35.0358V13.3528ZM48.174 17.7128H52.5535V22.0729H48.174L48.174 17.7128ZM4.37988 48.2332H8.7593V52.5932H4.37988V48.2332ZM56.9329 22.0729H52.5535V26.4329H56.9329V22.0729Z" fill="#FFFCF9" fill-opacity="0.7" style="mix-blend-mode:lighten"/>
<path fill-rule="evenodd" clip-rule="evenodd" d="M39.4146 43.8733H26.2764V48.2333H30.6558V56.9534H35.0352V48.2333H39.4146V43.8733ZM39.4146 65.6735H48.1734V70.0336H39.4146V65.6735ZM39.4146 65.6735H35.0352V61.3135H39.4146V65.6735ZM48.1734 43.8733H52.5529H56.9323V48.2333H52.5529V56.9534H48.1734V43.8733Z" fill="black"/>
<path fill-rule="evenodd" clip-rule="evenodd" d="M43.794 43.8733H39.4146V48.2333H35.0352V52.5934H39.4146V48.2333H43.794V43.8733Z" fill="#714A1C" fill-opacity="0.25" style="mix-blend-mode:multiply"/>
<path fill-rule="evenodd" clip-rule="evenodd" d="M21.8971 0.272705H52.553V4.63275H21.8971V0.272705ZM13.1383 8.9928V4.63275H21.8971V8.9928H13.1383ZM8.75883 13.3528V8.9928H13.1383V13.3528H8.75883ZM8.75883 13.3528V48.2332H4.37942V13.3528H8.75883ZM4.37942 48.2332H0V61.3134H4.37942V65.6734H8.75883V70.0335H13.1383V74.3935H17.5177V78.7536H26.2765V83.1136H52.553V78.7536H56.9324V74.3935H61.3118V70.0335H65.6912V13.3528H61.3118V8.9928H56.9324V4.63275H52.553V8.9928H56.9324V13.3528H61.3118V70.0335H56.9324V74.3935H52.553V78.7536H26.2765V74.3935H17.5177V70.0335H13.1383V65.6734V61.3134H4.37942V48.2332ZM13.1383 48.2332H8.75883V52.5933H13.1383V48.2332Z" fill="black"/>
<path d="M22.1893 4.58057H53.2549V8.93343H57.6929V13.2863H62.1308V69.8736H57.6929V74.2264H53.2549V78.5793H26.6272V74.2264H17.7513V69.8736H13.3134V61.1678H4.4375V48.1092H8.87545V13.2863H13.3134V8.93343H22.1893V4.58057Z" fill="#FAE6CE"/>
<path fill-rule="evenodd" clip-rule="evenodd" d="M17.7513 82.9322H53.2549V87.285H57.6929V95.9907H53.2549V122.108H57.6929V130.814H53.2549V152.578H44.379V130.814H39.9411V139.519H35.5031V143.872H31.0652V152.578H22.1893V126.461H26.6272V122.108H13.3134V87.285H17.7513V82.9322ZM22.1893 91.6379H26.6272V117.755H22.1893V91.6379Z" fill="#FAE6CE"/>
<path d="M57.6929 95.9907H62.1308V109.049H66.5688V117.755H57.6929V95.9907Z" fill="#FAE6CE"/>
<path d="M53.2564 4.58057H31.0667V8.93343H48.8185V13.2863H57.6944V48.1092H62.1323V13.2863H57.6944V8.93343H53.2564V4.58057Z" fill="#E3C4A6"/>
<path d="M13.3149 13.2863H8.87695V30.6978H13.3149V13.2863Z" fill="#E3C4A6"/>
<path d="M8.87695 52.4621H13.3149V48.1092H17.7529V69.8736H13.3149V56.815H8.87695V52.4621Z" fill="#E3C4A6"/>
<path d="M17.7529 69.8736H31.0667V74.2264H53.2564V78.5793H26.6287V74.2264H17.7529V69.8736Z" fill="#E3C4A6"/>
<path d="M57.6944 95.9907H62.1323V109.049H66.5703V117.755H57.6944V95.9907Z" fill="#E3C4A6"/>
<path d="M57.6944 95.9907H53.2564V91.6379H48.8185V87.285H26.6287V82.9322H53.2564V87.285H57.6944V95.9907Z" fill="#E3C4A6"/>
<path d="M57.6944 122.108H53.2564V100.344H48.8185V122.108H53.2564V130.814H57.6944V122.108Z" fill="#E3C4A6"/>
<path d="M48.8185 135.167H53.2564V152.578H48.8185V135.167Z" fill="#E3C4A6"/>
<path d="M26.6287 126.461H22.1908V152.578H31.0667V143.872H26.6287V126.461Z" fill="#E3C4A6"/>
<path d="M35.5046 130.814H39.9426V135.167H35.5046V130.814Z" fill="#E3C4A6"/>
<path d="M22.1908 100.344H17.7529V113.402H13.3149V122.108H26.6287V117.755H22.1908V100.344Z" fill="#E3C4A6"/>
<path d="M26.6272 13.2861H31.0652V17.639H26.6272V13.2861Z" fill="#FFF8EF"/>
<path d="M48.817 13.2861H35.5031V17.639H48.817V21.9919H53.2549V26.3447H57.6929V21.9919H53.2549V17.639H48.817V13.2861Z" fill="#FFF8EF"/>
<path d="M8.87545 48.1091H4.4375V52.4619H8.87545V48.1091Z" fill="#FFF8EF"/>
<path d="M17.7513 82.932H26.6272V87.2848H17.7513V82.932Z" fill="#FFF8EF"/>
<path d="M17.7513 87.2848V91.6377H13.3134V87.2848H17.7513Z" fill="#FFF8EF"/>
<path d="M35.5031 98.167H31.0652V106.873H35.5031V98.167Z" fill="#FFF8EF"/>
<path d="M35.5031 98.167H39.9411V93.8141H35.5031V98.167Z" fill="#FFF8EF"/>
<path d="M44.379 126.461H39.9411V130.813H44.379V126.461Z" fill="#FFF8EF"/>
<path fill-rule="evenodd" clip-rule="evenodd" d="M53.2554 0.227539H22.1897V4.5804H13.3138V8.93327H8.8759V13.2861H4.43795V48.1091H0V61.1677H4.43795V65.5205H8.8759V69.8734H13.3138V74.2262H17.7518V82.932H13.3138V87.2848H8.8759V122.108H13.3138V126.461H17.7518V156.931H35.5036V143.872H39.9415V156.931H62.1313V152.578H57.6933V130.813H62.1313V122.108H66.5692V117.755H71.0072V109.049H66.5692V95.9906H62.1313V87.2848H57.6933V82.932H53.2554V78.5791H57.6933V74.2262H62.1313V69.8734H66.5692V13.2861H62.1313V8.93327H57.6933V4.5804H53.2554V0.227539ZM53.2554 4.5804V8.93327H57.6933V13.2861H62.1313V69.8734H57.6933V74.2262H53.2554V78.5791H26.6277V74.2262H17.7518V69.8734H13.3138V61.1677H4.43795V48.1091H8.8759V52.4619H13.3138V48.1091H8.8759V13.2861H13.3138V8.93327H22.1897V4.5804H53.2554ZM57.6933 95.9906H53.2554V122.108H57.6933V130.813H53.2554V152.578H44.3795V130.813H39.9415V135.166H35.5036V143.872H31.0656V152.578H22.1897V126.461H31.0656V117.755H26.6277V91.6377H22.1897V117.755H26.6277V122.108H13.3138V87.2848H17.7518V82.932H53.2554V87.2848H57.6933V95.9906ZM57.6933 95.9906V117.755H66.5692V109.049H62.1313V95.9906H57.6933Z" fill="black"/>
<path fill-rule="evenodd" clip-rule="evenodd" d="M52.5535 4.63281H21.8975L21.8975 8.99286H17.5181H13.1387V13.3529H8.7593V48.2333H4.37988V61.3134H8.7593H13.1387V70.0335H17.5181V74.3936L21.8975 74.3936H26.277V78.7536H52.5535L52.5535 74.3936L56.9329 74.3936V70.0335H61.3123V13.3529H56.9329V8.99286H52.5535V4.63281Z" fill="#FAE6CE"/>
<path fill-rule="evenodd" clip-rule="evenodd" d="M30.6559 4.63281H52.553V8.99286H56.9324L56.9324 13.3529H48.1735V8.99286H30.6559V4.63281ZM56.9324 13.3529H61.3118V48.2333H56.9324V13.3529ZM8.75879 13.3529H13.1382V48.2333H8.75879V13.3529ZM17.5176 70.0335H13.1382V56.9534H8.75879V52.5933H13.1382V48.2333H17.5176V70.0335ZM30.6559 74.3936V70.0335H17.5176V74.3936H26.2765V78.7536H52.553V74.3936H30.6559ZM13.1382 13.3529V8.99286H17.5176V13.3529H13.1382Z" fill="#714A1C" fill-opacity="0.25" style="mix-blend-mode:multiply"/>
<path fill-rule="evenodd" clip-rule="evenodd" d="M30.6564 13.3528H26.277V17.7128H30.6564V13.3528ZM35.0358 13.3528H48.174V17.7128H35.0358V13.3528ZM48.174 17.7128H52.5535V22.0729H48.174L48.174 17.7128ZM4.37988 48.2332H8.7593V52.5932H4.37988V48.2332ZM56.9329 22.0729H52.5535V26.4329H56.9329V22.0729Z" fill="#FFFCF9" fill-opacity="0.7" style="mix-blend-mode:lighten"/>
<path fill-rule="evenodd" clip-rule="evenodd" d="M39.4146 43.8733H26.2764V48.2333H30.6558V56.9534H35.0352V48.2333H39.4146V43.8733ZM39.4146 65.6735H48.1734V70.0336H39.4146V65.6735ZM39.4146 65.6735H35.0352V61.3135H39.4146V65.6735ZM48.1734 43.8733H52.5529H56.9323V48.2333H52.5529V56.9534H48.1734V43.8733Z" fill="black"/>
<path fill-rule="evenodd" clip-rule="evenodd" d="M43.794 43.8733H39.4146V48.2333H35.0352V52.5934H39.4146V48.2333H43.794V43.8733Z" fill="#714A1C" fill-opacity="0.25" style="mix-blend-mode:multiply"/>
<path fill-rule="evenodd" clip-rule="evenodd" d="M21.8971 0.272705H52.553V4.63275H21.8971V0.272705ZM13.1383 8.9928V4.63275H21.8971V8.9928H13.1383ZM8.75883 13.3528V8.9928H13.1383V13.3528H8.75883ZM8.75883 13.3528V48.2332H4.37942V13.3528H8.75883ZM4.37942 48.2332H0V61.3134H4.37942V65.6734H8.75883V70.0335H13.1383V74.3935H17.5177V78.7536H26.2765V83.1136H52.553V78.7536H56.9324V74.3935H61.3118V70.0335H65.6912V13.3528H61.3118V8.9928H56.9324V4.63275H52.553V8.9928H56.9324V13.3528H61.3118V70.0335H56.9324V74.3935H52.553V78.7536H26.2765V74.3935H17.5177V70.0335H13.1383V65.6734V61.3134H4.37942V48.2332ZM13.1383 48.2332H8.75883V52.5933H13.1383V48.2332Z" fill="black"/>
<path d="M22.1893 4.58057H53.2549V8.93343H57.6929V13.2863H62.1308V69.8736H57.6929V74.2264H53.2549V78.5793H26.6272V74.2264H17.7513V69.8736H13.3134V61.1678H4.4375V48.1092H8.87545V13.2863H13.3134V8.93343H22.1893V4.58057Z" fill="#FAE6CE"/>
<path fill-rule="evenodd" clip-rule="evenodd" d="M17.7513 82.9322H53.2549V87.285H57.6929V95.9907H53.2549V122.108H57.6929V130.814H53.2549V152.578H44.379V130.814H39.9411V139.519H35.5031V143.872H31.0652V152.578H22.1893V126.461H26.6272V122.108H13.3134V87.285H17.7513V82.9322ZM22.1893 91.6379H26.6272V117.755H22.1893V91.6379Z" fill="#FAE6CE"/>
<path d="M57.6929 95.9907H62.1308V109.049H66.5688V117.755H57.6929V95.9907Z" fill="#FAE6CE"/>
<path d="M53.2564 4.58057H31.0667V8.93343H48.8185V13.2863H57.6944V48.1092H62.1323V13.2863H57.6944V8.93343H53.2564V4.58057Z" fill="#E3C4A6"/>
<path d="M13.3149 13.2863H8.87695V30.6978H13.3149V13.2863Z" fill="#E3C4A6"/>
<path d="M8.87695 52.4621H13.3149V48.1092H17.7529V69.8736H13.3149V56.815H8.87695V52.4621Z" fill="#E3C4A6"/>
<path d="M17.7529 69.8736H31.0667V74.2264H53.2564V78.5793H26.6287V74.2264H17.7529V69.8736Z" fill="#E3C4A6"/>
<path d="M57.6944 95.9907H62.1323V109.049H66.5703V117.755H57.6944V95.9907Z" fill="#E3C4A6"/>
<path d="M57.6944 95.9907H53.2564V91.6379H48.8185V87.285H26.6287V82.9322H53.2564V87.285H57.6944V95.9907Z" fill="#E3C4A6"/>
<path d="M57.6944 122.108H53.2564V100.344H48.8185V122.108H53.2564V130.814H57.6944V122.108Z" fill="#E3C4A6"/>
<path d="M48.8185 135.167H53.2564V152.578H48.8185V135.167Z" fill="#E3C4A6"/>
<path d="M26.6287 126.461H22.1908V152.578H31.0667V143.872H26.6287V126.461Z" fill="#E3C4A6"/>
<path d="M35.5046 130.814H39.9426V135.167H35.5046V130.814Z" fill="#E3C4A6"/>
<path d="M22.1908 100.344H17.7529V113.402H13.3149V122.108H26.6287V117.755H22.1908V100.344Z" fill="#E3C4A6"/>
<path d="M26.6272 13.2861H31.0652V17.639H26.6272V13.2861Z" fill="#FFF8EF"/>
<path d="M48.817 13.2861H35.5031V17.639H48.817V21.9919H53.2549V26.3447H57.6929V21.9919H53.2549V17.639H48.817V13.2861Z" fill="#FFF8EF"/>
<path d="M8.87545 48.1091H4.4375V52.4619H8.87545V48.1091Z" fill="#FFF8EF"/>
<path d="M17.7513 82.932H26.6272V87.2848H17.7513V82.932Z" fill="#FFF8EF"/>
<path d="M17.7513 87.2848V91.6377H13.3134V87.2848H17.7513Z" fill="#FFF8EF"/>
<path d="M35.5031 98.167H31.0652V106.873H35.5031V98.167Z" fill="#FFF8EF"/>
<path d="M35.5031 98.167H39.9411V93.8141H35.5031V98.167Z" fill="#FFF8EF"/>
<path d="M44.379 126.461H39.9411V130.813H44.379V126.461Z" fill="#FFF8EF"/>
<path fill-rule="evenodd" clip-rule="evenodd" d="M53.2554 0.227539H22.1897V4.5804H13.3138V8.93327H8.8759V13.2861H4.43795V48.1091H0V61.1677H4.43795V65.5205H8.8759V69.8734H13.3138V74.2262H17.7518V82.932H13.3138V87.2848H8.8759V122.108H13.3138V126.461H17.7518V156.931H35.5036V143.872H39.9415V156.931H62.1313V152.578H57.6933V130.813H62.1313V122.108H66.5692V117.755H71.0072V109.049H66.5692V95.9906H62.1313V87.2848H57.6933V82.932H53.2554V78.5791H57.6933V74.2262H62.1313V69.8734H66.5692V13.2861H62.1313V8.93327H57.6933V4.5804H53.2554V0.227539ZM53.2554 4.5804V8.93327H57.6933V13.2861H62.1313V69.8734H57.6933V74.2262H53.2554V78.5791H26.6277V74.2262H17.7518V69.8734H13.3138V61.1677H4.43795V48.1091H8.8759V52.4619H13.3138V48.1091H8.8759V13.2861H13.3138V8.93327H22.1897V4.5804H53.2554ZM57.6933 95.9906H53.2554V122.108H57.6933V130.813H53.2554V152.578H44.3795V130.813H39.9415V135.166H35.5036V143.872H31.0656V152.578H22.1897V126.461H31.0656V117.755H26.6277V91.6377H22.1897V117.755H26.6277V122.108H13.3138V87.2848H17.7518V82.932H53.2554V87.2848H57.6933V95.9906ZM57.6933 95.9906V117.755H66.5692V109.049H62.1313V95.9906H57.6933Z" fill="black"/>
<path fill-rule="evenodd" clip-rule="evenodd" d="M52.5535 4.63281H21.8975L21.8975 8.99286H17.5181H13.1387L13.1387 13.3529H8.7593V48.2333H4.37988V61.3134H8.7593H13.1387L13.1387 70.0335H17.5181L17.5181 74.3936L21.8975 74.3936H26.277V78.7536H52.5535V74.3936L56.9329 74.3936V70.0335H61.3123V13.3529H56.9329V8.99286H52.5535L52.5535 4.63281Z" fill="#9C6F4B"/>
<path fill-rule="evenodd" clip-rule="evenodd" d="M30.6559 4.63281H52.5529V8.99286H56.9324L56.9324 13.3529L48.1735 13.3529V8.99286H30.6559V4.63281ZM56.9324 13.3529H61.3118V48.2333H56.9324V13.3529ZM8.75879 13.3529H13.1382V48.2333H8.75879V13.3529ZM17.5176 70.0335H13.1382V56.9534H8.75879V52.5933H13.1382V48.2333L17.5176 48.2333V70.0335ZM30.6559 74.3936V70.0335L17.5176 70.0335V74.3936H26.2765V78.7536H52.5529V74.3936H30.6559ZM13.1382 13.3529V8.99286H17.5176V13.3529L13.1382 13.3529Z" fill="#714A1C" fill-opacity="0.25" style="mix-blend-mode:multiply"/>
<path fill-rule="evenodd" clip-rule="evenodd" d="M30.6564 13.3528H26.277V17.7128H30.6564V13.3528ZM35.0358 13.3528H48.174V17.7128H35.0358V13.3528ZM52.5535 22.0729V17.7128H48.174V22.0729H52.5535ZM52.5535 22.0729V26.4329H56.9329V22.0729H52.5535ZM4.37988 48.2332H8.7593V52.5932H4.37988V48.2332Z" fill="#FFFCF9" fill-opacity="0.7" style="mix-blend-mode:lighten"/>
<path fill-rule="evenodd" clip-rule="evenodd" d="M26.2764 43.8733H39.4146V48.2333H35.0352V56.9534H30.6558V48.2333H26.2764V43.8733ZM48.1734 65.6735H39.4146V70.0336H48.1734V65.6735ZM48.1734 65.6735H52.5529V61.3135H48.1734V65.6735ZM56.9323 48.2333H48.1734V52.5934H56.9323V48.2333Z" fill="black"/>
<path fill-rule="evenodd" clip-rule="evenodd" d="M43.794 43.8733H39.4146V48.2333H35.0352V52.5934H39.4146V48.2333H43.794V43.8733Z" fill="#714A1C" fill-opacity="0.25" style="mix-blend-mode:multiply"/>
<path fill-rule="evenodd" clip-rule="evenodd" d="M21.8971 0.272705H52.553V4.63275H21.8971V0.272705ZM13.1382 8.9928V4.63275H21.8971V8.9928H13.1382ZM8.75883 13.3528V8.9928H13.1382V13.3528H8.75883ZM8.75883 48.2332V13.3528H4.37942V48.2332H0V61.3134H4.37942V65.6734H8.75883V70.0335H13.1382V74.3935H17.5177V78.7536H26.2765V83.1136H52.553V78.7536H56.9324V74.3935H61.3118V70.0335H65.6912V13.3528H61.3118V8.9928H56.9324V4.63275H52.553L52.553 8.9928H56.9324V13.3528H61.3118V70.0335H56.9324V74.3935H52.553V78.7536H26.2765V74.3935H17.5177V70.0335H13.1382L13.1382 65.6734V61.3134H4.37942V48.2332H8.75883ZM8.75883 48.2332V52.5933H13.1382V48.2332H8.75883Z" fill="black"/>
<path fill-rule="evenodd" clip-rule="evenodd" d="M32.512 127.295H24.6016V149.386H32.512L32.512 145.705H36.4672V142.023H40.4224V130.977H44.3776L44.3776 149.386H52.288V145.705H56.2432V127.295H52.288H44.3776H40.4224H36.4672H32.512Z" fill="black"/>
<path fill-rule="evenodd" clip-rule="evenodd" d="M24.6017 123.614H20.6465V156.75H24.6017H32.5121H36.4673V145.704H40.4225V156.75H44.3777H52.2881H56.2434H60.1986V153.068H56.2434V145.704H60.1986V123.614H56.2434H24.6017ZM44.3777 153.068H52.2881V145.704H56.2434V134.659H52.2881V130.977H56.2434V127.295H24.6017V130.977H28.5569V134.659H24.6017V153.068H32.5121V145.704H36.4673V142.023H40.4225V130.977H44.3777V153.068Z" fill="black"/>
<path fill-rule="evenodd" clip-rule="evenodd" d="M24.6016 127.295H28.5568V130.977H24.6016V127.295ZM24.6016 134.659H28.5568V138.341H24.6016V134.659ZM32.512 145.705H28.5568V149.386H32.512V145.705ZM36.4672 142.023H32.512L32.512 145.705L36.4672 145.705V142.023ZM36.4672 142.023V130.977H40.4224V142.023L36.4672 142.023ZM56.2432 127.295H52.288V130.977H56.2432V127.295ZM52.288 134.659H56.2432V138.341H52.288V134.659ZM48.3328 134.659H44.3776V149.386H48.3328L52.288 149.386V142.023H48.3328V134.659Z" fill="black" fill-opacity="0.2" style="mix-blend-mode:multiply"/>
<path fill-rule="evenodd" clip-rule="evenodd" d="M32.512 149.386H24.6016V153.068H32.512V149.386ZM52.288 149.386H44.3776V153.068H52.288V149.386Z" fill="black"/>
<path fill-rule="evenodd" clip-rule="evenodd" d="M28.5568 149.386H24.6016V153.068H28.5568V149.386ZM48.3328 149.386H44.3776V153.068H48.3328V149.386Z" fill="black" fill-opacity="0.2" style="mix-blend-mode:multiply"/>
<path fill-rule="evenodd" clip-rule="evenodd" d="M25.6509 72.0681H20.8961V76.8238H16.1413V81.5795H11.3865V86.3352H6.63175V114.869L1.87695 114.869V124.381H6.63175V129.136H16.1413V124.381H68.4441L68.4441 119.625H73.1989V110.114H68.4441V95.8465H63.6893V86.3352H58.9345V81.5795H54.1797V76.8238H49.4249V81.5795H44.6701V86.3352H35.1605V81.5795H30.4057V76.8238H25.6509V72.0681ZM25.6509 76.8238V81.5795H30.4057V86.3352H35.1605V91.0908H44.6701V86.3352H49.4249V81.5795H54.1797V86.3352H58.9345V95.8465H54.1797V119.625H25.6509V91.0908H20.8961V95.8465H11.3865V86.3352H16.1413V81.5795H20.8961V76.8238H25.6509ZM63.6893 119.625H68.4441V110.114H63.6893V95.8465H58.9345V114.869H63.6893V119.625ZM20.8961 119.625H16.1413L16.1413 124.381H6.63175V114.869H11.3865V100.602H20.8961V119.625Z" fill="black"/>
<path fill-rule="evenodd" clip-rule="evenodd" d="M44.6702 81.5796H35.1606V86.3353H44.6702V81.5796ZM11.3866 100.602H16.1414H20.8962V119.625H16.1414L16.1414 124.381H11.3866L6.63184 124.381V114.869H11.3866V100.602ZM68.4442 110.114H63.6894V119.625H68.4442V110.114ZM58.9346 95.8466H63.6894V114.869H58.9346V95.8466Z" fill="#9C6F4B"/>
<path fill-rule="evenodd" clip-rule="evenodd" d="M35.1607 81.5796H44.6703V86.3353H35.1607V81.5796ZM58.9347 95.8466H63.6895V110.114H68.4443V119.625H63.6895V114.869H58.9347V95.8466ZM16.1415 100.602H20.8963V119.625H16.1415V124.381H11.3867V114.869H16.1415V100.602Z" fill="#714A1C" fill-opacity="0.25" style="mix-blend-mode:multiply"/>
<path fill-rule="evenodd" clip-rule="evenodd" d="M25.6511 76.8237H20.8963L20.8963 81.5794H16.1415V86.3351H11.3867V95.8465H16.1415H20.8963L20.8963 91.0908H25.6511L25.6511 119.625H30.4059L35.1607 119.625H39.9155H44.6703H49.4251L54.1799 119.625V95.8465H58.9347V86.3351H54.1799V81.5794H49.4251L49.4251 86.3351H44.6703V91.0908H39.9155H35.1607V86.3351H30.4059L30.4059 81.5794H25.6511L25.6511 76.8237Z" fill="white"/>
<path fill-rule="evenodd" clip-rule="evenodd" d="M20.8964 76.8237H25.6512V81.5794H20.8964V76.8237ZM49.4252 81.5794H54.18V86.3351H49.4252V81.5794ZM54.18 86.3351L54.18 95.8465H58.9347V86.3351H54.18ZM54.18 114.869H25.6512V119.625H54.18V114.869ZM25.6512 86.3351H20.8964V91.0908H16.1416V95.8465H20.8964V91.0908H25.6512V86.3351Z" fill="black" fill-opacity="0.2" style="mix-blend-mode:multiply"/>
</svg>
